<?xml version="1.0" standalone="no"?>
<!DOCTYPE svg PUBLIC "-//W3C//DTD SVG 20010904//EN"
 "http://www.w3.org/TR/2001/REC-SVG-20010904/DTD/svg10.dtd">
<svg version="1.0" xmlns="http://www.w3.org/2000/svg"
 width="300.000000pt" height="300.000000pt" viewBox="0 0 300.000000 300.000000"
 preserveAspectRatio="xMidYMid meet">

<g transform="translate(0.000000,300.000000) scale(0.100000,-0.100000)"
fill="#000000" stroke="none">
<path d="M0 1500 l0 -1500 1500 0 1500 0 0 1500 0 1500 -1500 0 -1500 0 0
-1500z m1678 858 c2 -10 -5 -30 -16 -45 -16 -23 -134 -225 -235 -403 -11 -19
-28 -48 -38 -65 -10 -16 -41 -75 -69 -130 -29 -55 -67 -121 -86 -148 -19 -26
-34 -49 -34 -52 0 -2 -16 -29 -35 -60 -51 -80 -52 -99 -8 -174 21 -35 43 -64
48 -64 6 0 32 38 59 84 27 46 65 112 85 145 20 34 82 142 139 240 57 99 107
186 112 194 34 54 170 293 170 297 0 3 14 23 31 44 l31 39 304 0 c333 0 325 2
287 -57 -10 -15 -27 -44 -38 -65 -11 -20 -63 -110 -115 -199 -113 -193 -149
-259 -150 -279 0 -8 10 -31 22 -50 12 -19 27 -44 33 -55 7 -11 64 -111 128
-223 64 -112 117 -206 117 -208 0 -3 16 -30 35 -60 19 -30 35 -56 35 -59 0 -3
16 -29 35 -59 19 -30 35 -57 35 -60 0 -3 14 -27 30 -53 17 -26 30 -53 30 -60
0 -10 -60 -13 -302 -13 -266 0 -304 2 -320 17 -10 9 -18 19 -18 23 0 5 -32 63
-72 131 -39 68 -76 134 -82 146 -13 27 -41 30 -50 6 -3 -10 -14 -31 -25 -48
-10 -16 -60 -102 -111 -190 -50 -88 -101 -170 -113 -182 -18 -21 -30 -23 -108
-23 -49 0 -91 5 -94 10 -4 6 15 47 41 93 26 45 61 107 77 137 16 30 36 62 43
71 8 8 14 18 14 21 0 4 27 53 61 110 34 57 84 146 112 198 55 105 55 105 119
205 25 39 58 93 73 122 l28 52 -28 53 c-15 29 -33 63 -39 76 -16 33 -35 23
-66 -33 -15 -27 -73 -128 -129 -224 -56 -96 -113 -193 -125 -215 -13 -23 -52
-90 -86 -151 -35 -60 -69 -121 -77 -135 -7 -14 -46 -79 -85 -145 l-73 -120
-312 -3 c-203 -1 -313 1 -313 8 0 5 17 38 38 72 21 35 41 70 45 78 4 8 18 33
32 55 14 22 30 49 35 60 6 11 14 27 20 35 12 19 98 169 134 233 16 30 24 57
21 68 -4 11 -42 79 -85 153 -43 73 -89 153 -102 177 -59 104 -221 385 -228
394 -4 6 -18 28 -30 50 -12 22 -31 55 -42 73 -15 25 -17 33 -6 37 7 3 148 4
312 3 l299 -3 96 -164 c53 -91 101 -166 106 -168 6 -2 17 7 24 19 32 49 201
340 201 345 0 2 14 24 31 49 l30 45 92 -3 c78 -3 92 -6 95 -20z"/>
<path d="M713 2072 c-9 -6 -1 -27 32 -80 25 -40 45 -75 45 -78 0 -3 13 -24 28
-47 16 -23 44 -71 64 -107 61 -114 112 -200 119 -200 16 0 89 129 89 157 0 10
-28 65 -61 123 -34 58 -73 126 -86 152 -42 79 -51 84 -139 86 -44 1 -85 -2
-91 -6z"/>
<path d="M1938 2069 c-22 -12 -32 -58 -16 -78 14 -18 34 -51 56 -93 15 -32 39
-37 49 -10 4 9 27 50 51 91 24 40 41 80 38 88 -4 10 -25 13 -84 12 -44 -1 -86
-5 -94 -10z"/>
<path d="M1985 1451 c-30 -50 -65 -128 -65 -147 0 -23 16 -56 63 -131 13 -21
26 -42 28 -48 2 -5 26 -47 53 -92 l49 -83 93 0 c71 0 94 3 94 13 0 7 -4 17 -9
23 -5 5 -26 37 -45 72 -20 34 -52 90 -72 125 -36 62 -70 121 -107 187 -44 80
-68 103 -82 81z"/>
<path d="M988 1142 c-13 -16 -31 -45 -87 -145 -11 -21 -21 -40 -21 -42 0 -3
44 -5 98 -5 94 0 99 1 110 24 8 18 7 30 -3 49 -27 52 -50 92 -66 114 -15 21
-17 21 -31 5z"/>
</g>
</svg>
